<svg viewBox="0 0 45 45" xmlns="http://www.w3.org/2000/svg"><path d="m2 45c-1.105 0-2 0-2 0v-45h2 41 2v45s-.895 0-2 0z" fill="#fc414b"/><path d="m36.327 18.605c.038-.403.061-.809.061-1.221 0-7.392-6.412-13.384-14.323-13.384-6.057 0-11.236 3.512-13.33 8.476v.009c-.582 1.484-.881 3.064-.879 4.657v1.246l-.067.013c.006.068.012.136.018.204-.805.137-1.56.486-2.188 1.01-.627.524-1.104 1.205-1.383 1.973v.007c-.156.485-.236.992-.236 1.502 0 2.523 1.894 4.581 4.295 4.77.562 3.361 2.266 6.424 4.825 8.675 2.089 1.84 4.679 3.016 7.439 3.376l.055.007c1.898.199 3.816.002 5.634-.579s3.496-1.532 4.927-2.795c2.528-2.222 4.212-5.248 4.768-8.568.148-.011.294-.03.437-.056 0-.019.007-.038.011-.058.18-.014.359-.039.536-.075 1.886-.586 3.259-2.388 3.259-4.526.007-2.359-1.67-4.306-3.859-4.663zm-12.742-10.567c.146-.004.29.035.413.113.124.078.221.191.28.325s.077.282.051.425c-.026.144-.094.277-.196.382-.101.104-.232.176-.375.207-.143.03-.291.016-.427-.038-.135-.055-.251-.149-.332-.27-.082-.121-.126-.264-.126-.41-.003-.192.071-.376.204-.514.134-.138.316-.217.508-.22zm0 2.445c.146-.004.29.035.413.113.124.078.221.191.28.325s.077.282.051.425c-.026.144-.094.277-.196.382-.101.104-.232.176-.375.206-.143.031-.291.017-.427-.037-.135-.055-.251-.149-.332-.27-.082-.121-.126-.264-.126-.41-.003-.192.071-.377.204-.514.134-.138.316-.217.508-.22zm0 2.445c.146-.004.29.035.413.113.124.078.221.191.28.325s.077.282.051.425c-.026.144-.094.277-.196.382-.101.104-.232.176-.375.207-.143.03-.291.016-.427-.038-.135-.055-.251-.149-.332-.27-.082-.121-.126-.264-.126-.41-.003-.192.071-.377.204-.514.134-.138.316-.217.508-.22zm-2.845-4.89c.146-.004.29.035.413.112.124.078.222.191.281.325.059.133.077.281.051.425-.025.144-.093.277-.195.382-.101.105-.232.177-.375.207-.143.031-.291.018-.427-.037-.135-.055-.251-.149-.333-.27s-.125-.264-.125-.41c-.003-.191.07-.376.203-.513.133-.138.315-.217.507-.221zm0 2.445c.146-.004.29.035.413.112.124.078.222.191.281.325.059.133.077.281.051.425-.025.144-.093.277-.195.382-.101.105-.232.177-.375.207-.143.031-.291.017-.427-.037-.135-.055-.251-.149-.333-.27s-.125-.264-.125-.41c-.003-.191.07-.376.203-.513.133-.138.315-.217.507-.221zm0 2.445c.145-.004.289.035.413.113.123.078.221.191.28.325.058.134.076.282.05.425-.026.144-.094.277-.195.382-.102.104-.233.176-.376.207-.142.03-.291.016-.426-.038-.136-.055-.251-.149-.333-.27s-.125-.264-.125-.41c-.003-.192.07-.377.204-.514.133-.138.316-.217.508-.22zm-7.688 8.167c-.064.068-.152.109-.245.114s-.185-.026-.256-.086c-.072-.061-.117-.147-.126-.239-.01-.093.016-.187.073-.261.074-.086 1.792-2.085 3.993-2.085h.136c1.264.047 2.402.754 3.383 2.104.039.054.062.118.068.185.005.066-.008.133-.039.193-.03.059-.076.109-.133.144s-.122.054-.189.054c-.057 0-.113-.013-.165-.039-.051-.026-.095-.063-.129-.11-.843-1.158-1.791-1.767-2.82-1.806-1.905-.066-3.533 1.813-3.551 1.832zm8.901 13.728c-2.734 0-4.95-2.285-4.95-5.092.004-.093.045-.18.112-.245.068-.064.157-.099.25-.099s.183.035.25.099c.068.065.108.152.113.245 0 2.409 1.896 4.368 4.225 4.368s4.225-1.959 4.225-4.368c0-.096.038-.189.106-.257.069-.068.161-.106.257-.106s.189.038.257.106.106.161.106.257c0 2.807-2.221 5.092-4.951 5.092zm9.724-13.672c-.062.044-.136.068-.212.068-.057 0-.113-.013-.164-.039s-.096-.063-.129-.11c-.844-1.159-1.792-1.767-2.824-1.806-1.908-.07-3.531 1.808-3.547 1.827-.064.068-.152.109-.246.114-.093.006-.185-.025-.256-.086s-.116-.146-.126-.239c-.009-.093.017-.186.074-.26.075-.089 1.858-2.169 4.128-2.083 1.264.047 2.402.754 3.383 2.104.029.039.049.083.061.13.011.047.013.095.005.142-.007.048-.024.093-.049.134-.026.041-.059.077-.098.105z" fill="#ffe888"/></svg>